<?xml version="1.0" encoding="utf-8" standalone="no"?>
<!DOCTYPE svg PUBLIC "-//W3C//DTD SVG 1.1//EN"
  "http://www.w3.org/Graphics/SVG/1.1/DTD/svg11.dtd">
<!-- Created with matplotlib (https://matplotlib.org/) -->
<svg height="432pt" version="1.1" viewBox="0 0 432 432" width="432pt" xmlns="http://www.w3.org/2000/svg" xmlns:xlink="http://www.w3.org/1999/xlink">
 <metadata>
  <rdf:RDF xmlns:cc="http://creativecommons.org/ns#" xmlns:dc="http://purl.org/dc/elements/1.1/" xmlns:rdf="http://www.w3.org/1999/02/22-rdf-syntax-ns#">
   <cc:Work>
    <dc:type rdf:resource="http://purl.org/dc/dcmitype/StillImage"/>
    <dc:date>2022-10-29T14:38:36.659632</dc:date>
    <dc:format>image/svg+xml</dc:format>
    <dc:creator>
     <cc:Agent>
      <dc:title>Matplotlib v3.3.4, https://matplotlib.org/</dc:title>
     </cc:Agent>
    </dc:creator>
   </cc:Work>
  </rdf:RDF>
 </metadata>
 <defs>
  <style type="text/css">*{stroke-linecap:butt;stroke-linejoin:round;}</style>
 </defs>
 <g id="figure_1">
  <g id="patch_1">
   <path d="M 0 432 
L 432 432 
L 432 0 
L 0 0 
z
" style="fill:none;"/>
  </g>
  <g id="axes_1">
   <g id="patch_2">
    <path d="M 54 378 
L 388.8 378 
L 388.8 51.84 
L 54 51.84 
z
" style="fill:#ffffff;"/>
   </g>
   <g id="PathCollection_1">
    <defs>
     <path d="M 0 3 
C 0.795609 3 1.55874 2.683901 2.12132 2.12132 
C 2.683901 1.55874 3 0.795609 3 0 
C 3 -0.795609 2.683901 -1.55874 2.12132 -2.12132 
C 1.55874 -2.683901 0.795609 -3 0 -3 
C -0.795609 -3 -1.55874 -2.683901 -2.12132 -2.12132 
C -2.683901 -1.55874 -3 -0.795609 -3 0 
C -3 0.795609 -2.683901 1.55874 -2.12132 2.12132 
C -1.55874 2.683901 -0.795609 3 0 3 
z
" id="m95747d8ac7" style="stroke:#00bec4;stroke-opacity:0.2;"/>
    </defs>
    <g clip-path="url(#p6a708594b0)">
     <use style="fill:#00bec4;fill-opacity:0.2;stroke:#00bec4;stroke-opacity:0.2;" x="266.515896" xlink:href="#m95747d8ac7" y="194.920897"/>
     <use style="fill:#00bec4;fill-opacity:0.2;stroke:#00bec4;stroke-opacity:0.2;" x="194.835452" xlink:href="#m95747d8ac7" y="233.564045"/>
     <use style="fill:#00bec4;fill-opacity:0.2;stroke:#00bec4;stroke-opacity:0.2;" x="221.622472" xlink:href="#m95747d8ac7" y="194.336984"/>
     <use style="fill:#00bec4;fill-opacity:0.2;stroke:#00bec4;stroke-opacity:0.2;" x="215.008204" xlink:href="#m95747d8ac7" y="235.987809"/>
     <use style="fill:#00bec4;fill-opacity:0.2;stroke:#00bec4;stroke-opacity:0.2;" x="202.58813" xlink:href="#m95747d8ac7" y="228.531817"/>
     <use style="fill:#00bec4;fill-opacity:0.2;stroke:#00bec4;stroke-opacity:0.2;" x="257.991549" xlink:href="#m95747d8ac7" y="222.02633"/>
     <use style="fill:#00bec4;fill-opacity:0.2;stroke:#00bec4;stroke-opacity:0.2;" x="210.607127" xlink:href="#m95747d8ac7" y="236.399981"/>
     <use style="fill:#00bec4;fill-opacity:0.2;stroke:#00bec4;stroke-opacity:0.2;" x="257.09629" xlink:href="#m95747d8ac7" y="202.552426"/>
     <use style="fill:#00bec4;fill-opacity:0.2;stroke:#00bec4;stroke-opacity:0.2;" x="212.043036" xlink:href="#m95747d8ac7" y="230.313706"/>
     <use style="fill:#00bec4;fill-opacity:0.2;stroke:#00bec4;stroke-opacity:0.2;" x="201.344102" xlink:href="#m95747d8ac7" y="211.421454"/>
     <use style="fill:#00bec4;fill-opacity:0.2;stroke:#00bec4;stroke-opacity:0.2;" x="225.978535" xlink:href="#m95747d8ac7" y="223.945403"/>
     <use style="fill:#00bec4;fill-opacity:0.2;stroke:#00bec4;stroke-opacity:0.2;" x="214.810238" xlink:href="#m95747d8ac7" y="204.118685"/>
     <use style="fill:#00bec4;fill-opacity:0.2;stroke:#00bec4;stroke-opacity:0.2;" x="214.810238" xlink:href="#m95747d8ac7" y="197.577309"/>
     <use style="fill:#00bec4;fill-opacity:0.2;stroke:#00bec4;stroke-opacity:0.2;" x="220.923195" xlink:href="#m95747d8ac7" y="234.613248"/>
     <use style="fill:#00bec4;fill-opacity:0.2;stroke:#00bec4;stroke-opacity:0.2;" x="193.300888" xlink:href="#m95747d8ac7" y="246.233314"/>
     <use style="fill:#00bec4;fill-opacity:0.2;stroke:#00bec4;stroke-opacity:0.2;" x="200.770399" xlink:href="#m95747d8ac7" y="243.918686"/>
     <use style="fill:#00bec4;fill-opacity:0.2;stroke:#00bec4;stroke-opacity:0.2;" x="242.255567" xlink:href="#m95747d8ac7" y="231.437315"/>
     <use style="fill:#00bec4;fill-opacity:0.2;stroke:#00bec4;stroke-opacity:0.2;" x="243.716519" xlink:href="#m95747d8ac7" y="193.570364"/>
     <use style="fill:#00bec4;fill-opacity:0.2;stroke:#00bec4;stroke-opacity:0.2;" x="256.26741" xlink:href="#m95747d8ac7" y="212.610881"/>
     <use style="fill:#00bec4;fill-opacity:0.2;stroke:#00bec4;stroke-opacity:0.2;" x="303.785782" xlink:href="#m95747d8ac7" y="178.123433"/>
     <use style="fill:#00bec4;fill-opacity:0.2;stroke:#00bec4;stroke-opacity:0.2;" x="291.498074" xlink:href="#m95747d8ac7" y="176.827073"/>
     <use style="fill:#00bec4;fill-opacity:0.2;stroke:#00bec4;stroke-opacity:0.2;" x="303.785782" xlink:href="#m95747d8ac7" y="178.541736"/>
     <use style="fill:#00bec4;fill-opacity:0.2;stroke:#00bec4;stroke-opacity:0.2;" x="254.095822" xlink:href="#m95747d8ac7" y="190.744241"/>
     <use style="fill:#00bec4;fill-opacity:0.2;stroke:#00bec4;stroke-opacity:0.2;" x="217.962676" xlink:href="#m95747d8ac7" y="220.79512"/>
     <use style="fill:#00bec4;fill-opacity:0.2;stroke:#00bec4;stroke-opacity:0.2;" x="200.770399" xlink:href="#m95747d8ac7" y="243.540813"/>
     <use style="fill:#00bec4;fill-opacity:0.2;stroke:#00bec4;stroke-opacity:0.2;" x="192.741534" xlink:href="#m95747d8ac7" y="241.880462"/>
     <use style="fill:#00bec4;fill-opacity:0.2;stroke:#00bec4;stroke-opacity:0.2;" x="207.457053" xlink:href="#m95747d8ac7" y="185.854552"/>
     <use style="fill:#00bec4;fill-opacity:0.2;stroke:#00bec4;stroke-opacity:0.2;" x="206.483857" xlink:href="#m95747d8ac7" y="202.905397"/>
     <use style="fill:#00bec4;fill-opacity:0.2;stroke:#00bec4;stroke-opacity:0.2;" x="213.170517" xlink:href="#m95747d8ac7" y="197.682875"/>
     <use style="fill:#00bec4;fill-opacity:0.2;stroke:#00bec4;stroke-opacity:0.2;" x="182.769231" xlink:href="#m95747d8ac7" y="195.768073"/>
     <use style="fill:#00bec4;fill-opacity:0.2;stroke:#00bec4;stroke-opacity:0.2;" x="182.769231" xlink:href="#m95747d8ac7" y="228.541275"/>
     <use style="fill:#00bec4;fill-opacity:0.2;stroke:#00bec4;stroke-opacity:0.2;" x="240.76205" xlink:href="#m95747d8ac7" y="194.497737"/>
     <use style="fill:#00bec4;fill-opacity:0.2;stroke:#00bec4;stroke-opacity:0.2;" x="209.215138" xlink:href="#m95747d8ac7" y="237.007618"/>
     <use style="fill:#00bec4;fill-opacity:0.2;stroke:#00bec4;stroke-opacity:0.2;" x="182.769231" xlink:href="#m95747d8ac7" y="217.164647"/>
     <use style="fill:#00bec4;fill-opacity:0.2;stroke:#00bec4;stroke-opacity:0.2;" x="252.278088" xlink:href="#m95747d8ac7" y="226.924799"/>
     <use style="fill:#00bec4;fill-opacity:0.2;stroke:#00bec4;stroke-opacity:0.2;" x="197.835919" xlink:href="#m95747d8ac7" y="233.315342"/>
     <use style="fill:#00bec4;fill-opacity:0.2;stroke:#00bec4;stroke-opacity:0.2;" x="245.703839" xlink:href="#m95747d8ac7" y="246.681107"/>
     <use style="fill:#00bec4;fill-opacity:0.2;stroke:#00bec4;stroke-opacity:0.2;" x="182.769231" xlink:href="#m95747d8ac7" y="238.833562"/>
     <use style="fill:#00bec4;fill-opacity:0.2;stroke:#00bec4;stroke-opacity:0.2;" x="182.769231" xlink:href="#m95747d8ac7" y="238.811148"/>
     <use style="fill:#00bec4;fill-opacity:0.2;stroke:#00bec4;stroke-opacity:0.2;" x="240.369563" xlink:href="#m95747d8ac7" y="244.317279"/>
     <use style="fill:#00bec4;fill-opacity:0.2;stroke:#00bec4;stroke-opacity:0.2;" x="182.769231" xlink:href="#m95747d8ac7" y="249.408193"/>
     <use style="fill:#00bec4;fill-opacity:0.2;stroke:#00bec4;stroke-opacity:0.2;" x="182.769231" xlink:href="#m95747d8ac7" y="236.714322"/>
     <use style="fill:#00bec4;fill-opacity:0.2;stroke:#00bec4;stroke-opacity:0.2;" x="225.978535" xlink:href="#m95747d8ac7" y="245.897355"/>
     <use style="fill:#00bec4;fill-opacity:0.2;stroke:#00bec4;stroke-opacity:0.2;" x="182.769231" xlink:href="#m95747d8ac7" y="226.079604"/>
     <use style="fill:#00bec4;fill-opacity:0.2;stroke:#00bec4;stroke-opacity:0.2;" x="206.483857" xlink:href="#m95747d8ac7" y="245.038102"/>
     <use style="fill:#00bec4;fill-opacity:0.2;stroke:#00bec4;stroke-opacity:0.2;" x="182.769231" xlink:href="#m95747d8ac7" y="249.851195"/>
     <use style="fill:#00bec4;fill-opacity:0.2;stroke:#00bec4;stroke-opacity:0.2;" x="182.769231" xlink:href="#m95747d8ac7" y="243.997854"/>
     <use style="fill:#00bec4;fill-opacity:0.2;stroke:#00bec4;stroke-opacity:0.2;" x="219.345263" xlink:href="#m95747d8ac7" y="214.261787"/>
     <use style="fill:#00bec4;fill-opacity:0.2;stroke:#00bec4;stroke-opacity:0.2;" x="182.769231" xlink:href="#m95747d8ac7" y="248.481484"/>
     <use style="fill:#00bec4;fill-opacity:0.2;stroke:#00bec4;stroke-opacity:0.2;" x="203.988051" xlink:href="#m95747d8ac7" y="199.496619"/>
     <use style="fill:#00bec4;fill-opacity:0.2;stroke:#00bec4;stroke-opacity:0.2;" x="220.923195" xlink:href="#m95747d8ac7" y="240.921189"/>
     <use style="fill:#00bec4;fill-opacity:0.2;stroke:#00bec4;stroke-opacity:0.2;" x="245.703839" xlink:href="#m95747d8ac7" y="237.399613"/>
     <use style="fill:#00bec4;fill-opacity:0.2;stroke:#00bec4;stroke-opacity:0.2;" x="182.769231" xlink:href="#m95747d8ac7" y="233.363531"/>
     <use style="fill:#00bec4;fill-opacity:0.2;stroke:#00bec4;stroke-opacity:0.2;" x="191.21397" xlink:href="#m95747d8ac7" y="189.590303"/>
     <use style="fill:#00bec4;fill-opacity:0.2;stroke:#00bec4;stroke-opacity:0.2;" x="183.617057" xlink:href="#m95747d8ac7" y="237.253414"/>
     <use style="fill:#00bec4;fill-opacity:0.2;stroke:#00bec4;stroke-opacity:0.2;" x="202.58813" xlink:href="#m95747d8ac7" y="245.277037"/>
     <use style="fill:#00bec4;fill-opacity:0.2;stroke:#00bec4;stroke-opacity:0.2;" x="182.769231" xlink:href="#m95747d8ac7" y="230.395631"/>
     <use style="fill:#00bec4;fill-opacity:0.2;stroke:#00bec4;stroke-opacity:0.2;" x="182.769231" xlink:href="#m95747d8ac7" y="230.899306"/>
     <use style="fill:#00bec4;fill-opacity:0.2;stroke:#00bec4;stroke-opacity:0.2;" x="182.769231" xlink:href="#m95747d8ac7" y="246.809146"/>
     <use style="fill:#00bec4;fill-opacity:0.2;stroke:#00bec4;stroke-opacity:0.2;" x="182.769231" xlink:href="#m95747d8ac7" y="235.113375"/>
     <use style="fill:#00bec4;fill-opacity:0.2;stroke:#00bec4;stroke-opacity:0.2;" x="182.769231" xlink:href="#m95747d8ac7" y="215.93954"/>
     <use style="fill:#00bec4;fill-opacity:0.2;stroke:#00bec4;stroke-opacity:0.2;" x="182.769231" xlink:href="#m95747d8ac7" y="248.546434"/>
     <use style="fill:#00bec4;fill-opacity:0.2;stroke:#00bec4;stroke-opacity:0.2;" x="182.769231" xlink:href="#m95747d8ac7" y="249.611381"/>
     <use style="fill:#00bec4;fill-opacity:0.2;stroke:#00bec4;stroke-opacity:0.2;" x="182.769231" xlink:href="#m95747d8ac7" y="241.770153"/>
     <use style="fill:#00bec4;fill-opacity:0.2;stroke:#00bec4;stroke-opacity:0.2;" x="182.769231" xlink:href="#m95747d8ac7" y="228.002111"/>
     <use style="fill:#00bec4;fill-opacity:0.2;stroke:#00bec4;stroke-opacity:0.2;" x="182.769231" xlink:href="#m95747d8ac7" y="236.963455"/>
     <use style="fill:#00bec4;fill-opacity:0.2;stroke:#00bec4;stroke-opacity:0.2;" x="225.458221" xlink:href="#m95747d8ac7" y="239.65577"/>
     <use style="fill:#00bec4;fill-opacity:0.2;stroke:#00bec4;stroke-opacity:0.2;" x="182.769231" xlink:href="#m95747d8ac7" y="246.661546"/>
     <use style="fill:#00bec4;fill-opacity:0.2;stroke:#00bec4;stroke-opacity:0.2;" x="182.769231" xlink:href="#m95747d8ac7" y="240.005498"/>
     <use style="fill:#00bec4;fill-opacity:0.2;stroke:#00bec4;stroke-opacity:0.2;" x="182.769231" xlink:href="#m95747d8ac7" y="230.211645"/>
     <use style="fill:#00bec4;fill-opacity:0.2;stroke:#00bec4;stroke-opacity:0.2;" x="182.769231" xlink:href="#m95747d8ac7" y="224.368898"/>
     <use style="fill:#00bec4;fill-opacity:0.2;stroke:#00bec4;stroke-opacity:0.2;" x="182.769231" xlink:href="#m95747d8ac7" y="242.363242"/>
     <use style="fill:#00bec4;fill-opacity:0.2;stroke:#00bec4;stroke-opacity:0.2;" x="182.769231" xlink:href="#m95747d8ac7" y="230.767313"/>
     <use style="fill:#00bec4;fill-opacity:0.2;stroke:#00bec4;stroke-opacity:0.2;" x="187.082773" xlink:href="#m95747d8ac7" y="196.066989"/>
     <use style="fill:#00bec4;fill-opacity:0.2;stroke:#00bec4;stroke-opacity:0.2;" x="182.769231" xlink:href="#m95747d8ac7" y="250.925557"/>
     <use style="fill:#00bec4;fill-opacity:0.2;stroke:#00bec4;stroke-opacity:0.2;" x="182.769231" xlink:href="#m95747d8ac7" y="244.162208"/>
     <use style="fill:#00bec4;fill-opacity:0.2;stroke:#00bec4;stroke-opacity:0.2;" x="182.769231" xlink:href="#m95747d8ac7" y="235.701577"/>
     <use style="fill:#00bec4;fill-opacity:0.2;stroke:#00bec4;stroke-opacity:0.2;" x="182.769231" xlink:href="#m95747d8ac7" y="243.798644"/>
     <use style="fill:#00bec4;fill-opacity:0.2;stroke:#00bec4;stroke-opacity:0.2;" x="182.769231" xlink:href="#m95747d8ac7" y="211.092584"/>
     <use style="fill:#00bec4;fill-opacity:0.2;stroke:#00bec4;stroke-opacity:0.2;" x="182.769231" xlink:href="#m95747d8ac7" y="250.351825"/>
     <use style="fill:#00bec4;fill-opacity:0.2;stroke:#00bec4;stroke-opacity:0.2;" x="182.769231" xlink:href="#m95747d8ac7" y="202.697011"/>
     <use style="fill:#00bec4;fill-opacity:0.2;stroke:#00bec4;stroke-opacity:0.2;" x="182.769231" xlink:href="#m95747d8ac7" y="234.863494"/>
     <use style="fill:#00bec4;fill-opacity:0.2;stroke:#00bec4;stroke-opacity:0.2;" x="182.769231" xlink:href="#m95747d8ac7" y="245.441379"/>
     <use style="fill:#00bec4;fill-opacity:0.2;stroke:#00bec4;stroke-opacity:0.2;" x="182.769231" xlink:href="#m95747d8ac7" y="250.80981"/>
     <use style="fill:#00bec4;fill-opacity:0.2;stroke:#00bec4;stroke-opacity:0.2;" x="233.210899" xlink:href="#m95747d8ac7" y="237.585041"/>
     <use style="fill:#00bec4;fill-opacity:0.2;stroke:#00bec4;stroke-opacity:0.2;" x="205.588598" xlink:href="#m95747d8ac7" y="236.310973"/>
     <use style="fill:#00bec4;fill-opacity:0.2;stroke:#00bec4;stroke-opacity:0.2;" x="182.769231" xlink:href="#m95747d8ac7" y="231.514893"/>
     <use style="fill:#00bec4;fill-opacity:0.2;stroke:#00bec4;stroke-opacity:0.2;" x="182.769231" xlink:href="#m95747d8ac7" y="243.40687"/>
     <use style="fill:#00bec4;fill-opacity:0.2;stroke:#00bec4;stroke-opacity:0.2;" x="225.978535" xlink:href="#m95747d8ac7" y="231.326665"/>
     <use style="fill:#00bec4;fill-opacity:0.2;stroke:#00bec4;stroke-opacity:0.2;" x="182.769231" xlink:href="#m95747d8ac7" y="242.614242"/>
     <use style="fill:#00bec4;fill-opacity:0.2;stroke:#00bec4;stroke-opacity:0.2;" x="182.769231" xlink:href="#m95747d8ac7" y="204.541133"/>
     <use style="fill:#00bec4;fill-opacity:0.2;stroke:#00bec4;stroke-opacity:0.2;" x="182.769231" xlink:href="#m95747d8ac7" y="249.916797"/>
     <use style="fill:#00bec4;fill-opacity:0.2;stroke:#00bec4;stroke-opacity:0.2;" x="182.769231" xlink:href="#m95747d8ac7" y="242.291719"/>
     <use style="fill:#00bec4;fill-opacity:0.2;stroke:#00bec4;stroke-opacity:0.2;" x="182.769231" xlink:href="#m95747d8ac7" y="226.809908"/>
     <use style="fill:#00bec4;fill-opacity:0.2;stroke:#00bec4;stroke-opacity:0.2;" x="182.769231" xlink:href="#m95747d8ac7" y="241.755528"/>
     <use style="fill:#00bec4;fill-opacity:0.2;stroke:#00bec4;stroke-opacity:0.2;" x="182.769231" xlink:href="#m95747d8ac7" y="247.395159"/>
     <use style="fill:#00bec4;fill-opacity:0.2;stroke:#00bec4;stroke-opacity:0.2;" x="182.769231" xlink:href="#m95747d8ac7" y="248.265484"/>
     <use style="fill:#00bec4;fill-opacity:0.2;stroke:#00bec4;stroke-opacity:0.2;" x="182.769231" xlink:href="#m95747d8ac7" y="233.364201"/>
     <use style="fill:#00bec4;fill-opacity:0.2;stroke:#00bec4;stroke-opacity:0.2;" x="182.769231" xlink:href="#m95747d8ac7" y="223.236453"/>
     <use style="fill:#00bec4;fill-opacity:0.2;stroke:#00bec4;stroke-opacity:0.2;" x="182.769231" xlink:href="#m95747d8ac7" y="219.861807"/>
     <use style="fill:#00bec4;fill-opacity:0.2;stroke:#00bec4;stroke-opacity:0.2;" x="182.769231" xlink:href="#m95747d8ac7" y="250.950351"/>
     <use style="fill:#00bec4;fill-opacity:0.2;stroke:#00bec4;stroke-opacity:0.2;" x="182.769231" xlink:href="#m95747d8ac7" y="251.457621"/>
     <use style="fill:#00bec4;fill-opacity:0.2;stroke:#00bec4;stroke-opacity:0.2;" x="182.769231" xlink:href="#m95747d8ac7" y="241.506508"/>
     <use style="fill:#00bec4;fill-opacity:0.2;stroke:#00bec4;stroke-opacity:0.2;" x="182.769231" xlink:href="#m95747d8ac7" y="238.745499"/>
     <use style="fill:#00bec4;fill-opacity:0.2;stroke:#00bec4;stroke-opacity:0.2;" x="182.769231" xlink:href="#m95747d8ac7" y="239.252565"/>
     <use style="fill:#00bec4;fill-opacity:0.2;stroke:#00bec4;stroke-opacity:0.2;" x="182.769231" xlink:href="#m95747d8ac7" y="239.369735"/>
     <use style="fill:#00bec4;fill-opacity:0.2;stroke:#00bec4;stroke-opacity:0.2;" x="195.868625" xlink:href="#m95747d8ac7" y="235.710006"/>
     <use style="fill:#00bec4;fill-opacity:0.2;stroke:#00bec4;stroke-opacity:0.2;" x="182.769231" xlink:href="#m95747d8ac7" y="244.894636"/>
     <use style="fill:#00bec4;fill-opacity:0.2;stroke:#00bec4;stroke-opacity:0.2;" x="246.018923" xlink:href="#m95747d8ac7" y="240.504363"/>
     <use style="fill:#00bec4;fill-opacity:0.2;stroke:#00bec4;stroke-opacity:0.2;" x="182.769231" xlink:href="#m95747d8ac7" y="250.612652"/>
     <use style="fill:#00bec4;fill-opacity:0.2;stroke:#00bec4;stroke-opacity:0.2;" x="182.769231" xlink:href="#m95747d8ac7" y="232.799297"/>
     <use style="fill:#00bec4;fill-opacity:0.2;stroke:#00bec4;stroke-opacity:0.2;" x="197.007036" xlink:href="#m95747d8ac7" y="235.018941"/>
     <use style="fill:#00bec4;fill-opacity:0.2;stroke:#00bec4;stroke-opacity:0.2;" x="261.717687" xlink:href="#m95747d8ac7" y="226.109022"/>
     <use style="fill:#00bec4;fill-opacity:0.2;stroke:#00bec4;stroke-opacity:0.2;" x="127.498176" xlink:href="#m95747d8ac7" y="252.124997"/>
     <use style="fill:#00bec4;fill-opacity:0.2;stroke:#00bec4;stroke-opacity:0.2;" x="182.769231" xlink:href="#m95747d8ac7" y="249.339798"/>
     <use style="fill:#00bec4;fill-opacity:0.2;stroke:#00bec4;stroke-opacity:0.2;" x="182.769231" xlink:href="#m95747d8ac7" y="239.014838"/>
     <use style="fill:#00bec4;fill-opacity:0.2;stroke:#00bec4;stroke-opacity:0.2;" x="172.520741" xlink:href="#m95747d8ac7" y="267.535314"/>
     <use style="fill:#00bec4;fill-opacity:0.2;stroke:#00bec4;stroke-opacity:0.2;" x="159.996941" xlink:href="#m95747d8ac7" y="267.801657"/>
     <use style="fill:#00bec4;fill-opacity:0.2;stroke:#00bec4;stroke-opacity:0.2;" x="238.756165" xlink:href="#m95747d8ac7" y="239.048647"/>
    </g>
   </g>
   <g id="matplotlib.axis_1">
    <g id="xtick_1">
     <g id="line2d_1">
      <defs>
       <path d="M 0 0 
L 0 3.5 
" id="m110324ff4b" style="stroke:#000000;stroke-width:0.8;"/>
      </defs>
      <g>
       <use style="stroke:#000000;stroke-width:0.8;" x="79.753846" xlink:href="#m110324ff4b" y="378"/>
      </g>
     </g>
     <g id="text_1">
      <!-- −8 -->
      <g transform="translate(72.382752 392.598437)scale(0.1 -0.1)">
       <defs>
        <path d="M 10.59375 35.5 
L 73.1875 35.5 
L 73.1875 27.203125 
L 10.59375 27.203125 
z
" id="DejaVuSans-8722"/>
        <path d="M 31.78125 34.625 
Q 24.75 34.625 20.71875 30.859375 
Q 16.703125 27.09375 16.703125 20.515625 
Q 16.703125 13.921875 20.71875 10.15625 
Q 24.75 6.390625 31.78125 6.390625 
Q 38.8125 6.390625 42.859375 10.171875 
Q 46.921875 13.96875 46.921875 20.515625 
Q 46.921875 27.09375 42.890625 30.859375 
Q 38.875 34.625 31.78125 34.625 
z
M 21.921875 38.8125 
Q 15.578125 40.375 12.03125 44.71875 
Q 8.5 49.078125 8.5 55.328125 
Q 8.5 64.0625 14.71875 69.140625 
Q 20.953125 74.21875 31.78125 74.21875 
Q 42.671875 74.21875 48.875 69.140625 
Q 55.078125 64.0625 55.078125 55.328125 
Q 55.078125 49.078125 51.53125 44.71875 
Q 48 40.375 41.703125 38.8125 
Q 48.828125 37.15625 52.796875 32.3125 
Q 56.78125 27.484375 56.78125 20.515625 
Q 56.78125 9.90625 50.3125 4.234375 
Q 43.84375 -1.421875 31.78125 -1.421875 
Q 19.734375 -1.421875 13.25 4.234375 
Q 6.78125 9.90625 6.78125 20.515625 
Q 6.78125 27.484375 10.78125 32.3125 
Q 14.796875 37.15625 21.921875 38.8125 
z
M 18.3125 54.390625 
Q 18.3125 48.734375 21.84375 45.5625 
Q 25.390625 42.390625 31.78125 42.390625 
Q 38.140625 42.390625 41.71875 45.5625 
Q 45.3125 48.734375 45.3125 54.390625 
Q 45.3125 60.0625 41.71875 63.234375 
Q 38.140625 66.40625 31.78125 66.40625 
Q 25.390625 66.40625 21.84375 63.234375 
Q 18.3125 60.0625 18.3125 54.390625 
z
" id="DejaVuSans-56"/>
       </defs>
       <use xlink:href="#DejaVuSans-8722"/>
       <use x="83.789062" xlink:href="#DejaVuSans-56"/>
      </g>
     </g>
    </g>
    <g id="xtick_2">
     <g id="line2d_2">
      <g>
       <use style="stroke:#000000;stroke-width:0.8;" x="131.261538" xlink:href="#m110324ff4b" y="378"/>
      </g>
     </g>
     <g id="text_2">
      <!-- −6 -->
      <g transform="translate(123.890445 392.598437)scale(0.1 -0.1)">
       <defs>
        <path d="M 33.015625 40.375 
Q 26.375 40.375 22.484375 35.828125 
Q 18.609375 31.296875 18.609375 23.390625 
Q 18.609375 15.53125 22.484375 10.953125 
Q 26.375 6.390625 33.015625 6.390625 
Q 39.65625 6.390625 43.53125 10.953125 
Q 47.40625 15.53125 47.40625 23.390625 
Q 47.40625 31.296875 43.53125 35.828125 
Q 39.65625 40.375 33.015625 40.375 
z
M 52.59375 71.296875 
L 52.59375 62.3125 
Q 48.875 64.0625 45.09375 64.984375 
Q 41.3125 65.921875 37.59375 65.921875 
Q 27.828125 65.921875 22.671875 59.328125 
Q 17.53125 52.734375 16.796875 39.40625 
Q 19.671875 43.65625 24.015625 45.921875 
Q 28.375 48.1875 33.59375 48.1875 
Q 44.578125 48.1875 50.953125 41.515625 
Q 57.328125 34.859375 57.328125 23.390625 
Q 57.328125 12.15625 50.6875 5.359375 
Q 44.046875 -1.421875 33.015625 -1.421875 
Q 20.359375 -1.421875 13.671875 8.265625 
Q 6.984375 17.96875 6.984375 36.375 
Q 6.984375 53.65625 15.1875 63.9375 
Q 23.390625 74.21875 37.203125 74.21875 
Q 40.921875 74.21875 44.703125 73.484375 
Q 48.484375 72.75 52.59375 71.296875 
z
" id="DejaVuSans-54"/>
       </defs>
       <use xlink:href="#DejaVuSans-8722"/>
       <use x="83.789062" xlink:href="#DejaVuSans-54"/>
      </g>
     </g>
    </g>
    <g id="xtick_3">
     <g id="line2d_3">
      <g>
       <use style="stroke:#000000;stroke-width:0.8;" x="182.769231" xlink:href="#m110324ff4b" y="378"/>
      </g>
     </g>
     <g id="text_3">
      <!-- −4 -->
      <g transform="translate(175.398137 392.598437)scale(0.1 -0.1)">
       <defs>
        <path d="M 37.796875 64.3125 
L 12.890625 25.390625 
L 37.796875 25.390625 
z
M 35.203125 72.90625 
L 47.609375 72.90625 
L 47.609375 25.390625 
L 58.015625 25.390625 
L 58.015625 17.1875 
L 47.609375 17.1875 
L 47.609375 0 
L 37.796875 0 
L 37.796875 17.1875 
L 4.890625 17.1875 
L 4.890625 26.703125 
z
" id="DejaVuSans-52"/>
       </defs>
       <use xlink:href="#DejaVuSans-8722"/>
       <use x="83.789062" xlink:href="#DejaVuSans-52"/>
      </g>
     </g>
    </g>
    <g id="xtick_4">
     <g id="line2d_4">
      <g>
       <use style="stroke:#000000;stroke-width:0.8;" x="234.276923" xlink:href="#m110324ff4b" y="378"/>
      </g>
     </g>
     <g id="text_4">
      <!-- −2 -->
      <g transform="translate(226.905829 392.598437)scale(0.1 -0.1)">
       <defs>
        <path d="M 19.1875 8.296875 
L 53.609375 8.296875 
L 53.609375 0 
L 7.328125 0 
L 7.328125 8.296875 
Q 12.9375 14.109375 22.625 23.890625 
Q 32.328125 33.6875 34.8125 36.53125 
Q 39.546875 41.84375 41.421875 45.53125 
Q 43.3125 49.21875 43.3125 52.78125 
Q 43.3125 58.59375 39.234375 62.25 
Q 35.15625 65.921875 28.609375 65.921875 
Q 23.96875 65.921875 18.8125 64.3125 
Q 13.671875 62.703125 7.8125 59.421875 
L 7.8125 69.390625 
Q 13.765625 71.78125 18.9375 73 
Q 24.125 74.21875 28.421875 74.21875 
Q 39.75 74.21875 46.484375 68.546875 
Q 53.21875 62.890625 53.21875 53.421875 
Q 53.21875 48.921875 51.53125 44.890625 
Q 49.859375 40.875 45.40625 35.40625 
Q 44.1875 33.984375 37.640625 27.21875 
Q 31.109375 20.453125 19.1875 8.296875 
z
" id="DejaVuSans-50"/>
       </defs>
       <use xlink:href="#DejaVuSans-8722"/>
       <use x="83.789062" xlink:href="#DejaVuSans-50"/>
      </g>
     </g>
    </g>
    <g id="xtick_5">
     <g id="line2d_5">
      <g>
       <use style="stroke:#000000;stroke-width:0.8;" x="285.784615" xlink:href="#m110324ff4b" y="378"/>
      </g>
     </g>
     <g id="text_5">
      <!-- 0 -->
      <g transform="translate(282.603365 392.598437)scale(0.1 -0.1)">
       <defs>
        <path d="M 31.78125 66.40625 
Q 24.171875 66.40625 20.328125 58.90625 
Q 16.5 51.421875 16.5 36.375 
Q 16.5 21.390625 20.328125 13.890625 
Q 24.171875 6.390625 31.78125 6.390625 
Q 39.453125 6.390625 43.28125 13.890625 
Q 47.125 21.390625 47.125 36.375 
Q 47.125 51.421875 43.28125 58.90625 
Q 39.453125 66.40625 31.78125 66.40625 
z
M 31.78125 74.21875 
Q 44.046875 74.21875 50.515625 64.515625 
Q 56.984375 54.828125 56.984375 36.375 
Q 56.984375 17.96875 50.515625 8.265625 
Q 44.046875 -1.421875 31.78125 -1.421875 
Q 19.53125 -1.421875 13.0625 8.265625 
Q 6.59375 17.96875 6.59375 36.375 
Q 6.59375 54.828125 13.0625 64.515625 
Q 19.53125 74.21875 31.78125 74.21875 
z
" id="DejaVuSans-48"/>
       </defs>
       <use xlink:href="#DejaVuSans-48"/>
      </g>
     </g>
    </g>
    <g id="xtick_6">
     <g id="line2d_6">
      <g>
       <use style="stroke:#000000;stroke-width:0.8;" x="337.292308" xlink:href="#m110324ff4b" y="378"/>
      </g>
     </g>
     <g id="text_6">
      <!-- 2 -->
      <g transform="translate(334.111058 392.598437)scale(0.1 -0.1)">
       <use xlink:href="#DejaVuSans-50"/>
      </g>
     </g>
    </g>
    <g id="xtick_7">
     <g id="line2d_7">
      <g>
       <use style="stroke:#000000;stroke-width:0.8;" x="388.8" xlink:href="#m110324ff4b" y="378"/>
      </g>
     </g>
     <g id="text_7">
      <!-- 4 -->
      <g transform="translate(385.61875 392.598437)scale(0.1 -0.1)">
       <use xlink:href="#DejaVuSans-52"/>
      </g>
     </g>
    </g>
    <g id="text_8">
     <!-- true value -->
     <g transform="translate(195.892188 406.276563)scale(0.1 -0.1)">
      <defs>
       <path d="M 18.3125 70.21875 
L 18.3125 54.6875 
L 36.8125 54.6875 
L 36.8125 47.703125 
L 18.3125 47.703125 
L 18.3125 18.015625 
Q 18.3125 11.328125 20.140625 9.421875 
Q 21.96875 7.515625 27.59375 7.515625 
L 36.8125 7.515625 
L 36.8125 0 
L 27.59375 0 
Q 17.1875 0 13.234375 3.875 
Q 9.28125 7.765625 9.28125 18.015625 
L 9.28125 47.703125 
L 2.6875 47.703125 
L 2.6875 54.6875 
L 9.28125 54.6875 
L 9.28125 70.21875 
z
" id="DejaVuSans-116"/>
       <path d="M 41.109375 46.296875 
Q 39.59375 47.171875 37.8125 47.578125 
Q 36.03125 48 33.890625 48 
Q 26.265625 48 22.1875 43.046875 
Q 18.109375 38.09375 18.109375 28.8125 
L 18.109375 0 
L 9.078125 0 
L 9.078125 54.6875 
L 18.109375 54.6875 
L 18.109375 46.1875 
Q 20.953125 51.171875 25.484375 53.578125 
Q 30.03125 56 36.53125 56 
Q 37.453125 56 38.578125 55.875 
Q 39.703125 55.765625 41.0625 55.515625 
z
" id="DejaVuSans-114"/>
       <path d="M 8.5 21.578125 
L 8.5 54.6875 
L 17.484375 54.6875 
L 17.484375 21.921875 
Q 17.484375 14.15625 20.5 10.265625 
Q 23.53125 6.390625 29.59375 6.390625 
Q 36.859375 6.390625 41.078125 11.03125 
Q 45.3125 15.671875 45.3125 23.6875 
L 45.3125 54.6875 
L 54.296875 54.6875 
L 54.296875 0 
L 45.3125 0 
L 45.3125 8.40625 
Q 42.046875 3.421875 37.71875 1 
Q 33.40625 -1.421875 27.6875 -1.421875 
Q 18.265625 -1.421875 13.375 4.4375 
Q 8.5 10.296875 8.5 21.578125 
z
M 31.109375 56 
z
" id="DejaVuSans-117"/>
       <path d="M 56.203125 29.59375 
L 56.203125 25.203125 
L 14.890625 25.203125 
Q 15.484375 15.921875 20.484375 11.0625 
Q 25.484375 6.203125 34.421875 6.203125 
Q 39.59375 6.203125 44.453125 7.46875 
Q 49.3125 8.734375 54.109375 11.28125 
L 54.109375 2.78125 
Q 49.265625 0.734375 44.1875 -0.34375 
Q 39.109375 -1.421875 33.890625 -1.421875 
Q 20.796875 -1.421875 13.15625 6.1875 
Q 5.515625 13.8125 5.515625 26.8125 
Q 5.515625 40.234375 12.765625 48.109375 
Q 20.015625 56 32.328125 56 
Q 43.359375 56 49.78125 48.890625 
Q 56.203125 41.796875 56.203125 29.59375 
z
M 47.21875 32.234375 
Q 47.125 39.59375 43.09375 43.984375 
Q 39.0625 48.390625 32.421875 48.390625 
Q 24.90625 48.390625 20.390625 44.140625 
Q 15.875 39.890625 15.1875 32.171875 
z
" id="DejaVuSans-101"/>
       <path id="DejaVuSans-32"/>
       <path d="M 2.984375 54.6875 
L 12.5 54.6875 
L 29.59375 8.796875 
L 46.6875 54.6875 
L 56.203125 54.6875 
L 35.6875 0 
L 23.484375 0 
z
" id="DejaVuSans-118"/>
       <path d="M 34.28125 27.484375 
Q 23.390625 27.484375 19.1875 25 
Q 14.984375 22.515625 14.984375 16.5 
Q 14.984375 11.71875 18.140625 8.90625 
Q 21.296875 6.109375 26.703125 6.109375 
Q 34.1875 6.109375 38.703125 11.40625 
Q 43.21875 16.703125 43.21875 25.484375 
L 43.21875 27.484375 
z
M 52.203125 31.203125 
L 52.203125 0 
L 43.21875 0 
L 43.21875 8.296875 
Q 40.140625 3.328125 35.546875 0.953125 
Q 30.953125 -1.421875 24.3125 -1.421875 
Q 15.921875 -1.421875 10.953125 3.296875 
Q 6 8.015625 6 15.921875 
Q 6 25.140625 12.171875 29.828125 
Q 18.359375 34.515625 30.609375 34.515625 
L 43.21875 34.515625 
L 43.21875 35.40625 
Q 43.21875 41.609375 39.140625 45 
Q 35.0625 48.390625 27.6875 48.390625 
Q 23 48.390625 18.546875 47.265625 
Q 14.109375 46.140625 10.015625 43.890625 
L 10.015625 52.203125 
Q 14.9375 54.109375 19.578125 55.046875 
Q 24.21875 56 28.609375 56 
Q 40.484375 56 46.34375 49.84375 
Q 52.203125 43.703125 52.203125 31.203125 
z
" id="DejaVuSans-97"/>
       <path d="M 9.421875 75.984375 
L 18.40625 75.984375 
L 18.40625 0 
L 9.421875 0 
z
" id="DejaVuSans-108"/>
      </defs>
      <use xlink:href="#DejaVuSans-116"/>
      <use x="39.208984" xlink:href="#DejaVuSans-114"/>
      <use x="80.322266" xlink:href="#DejaVuSans-117"/>
      <use x="143.701172" xlink:href="#DejaVuSans-101"/>
      <use x="205.224609" xlink:href="#DejaVuSans-32"/>
      <use x="237.011719" xlink:href="#DejaVuSans-118"/>
      <use x="296.191406" xlink:href="#DejaVuSans-97"/>
      <use x="357.470703" xlink:href="#DejaVuSans-108"/>
      <use x="385.253906" xlink:href="#DejaVuSans-117"/>
      <use x="448.632812" xlink:href="#DejaVuSans-101"/>
     </g>
    </g>
   </g>
   <g id="matplotlib.axis_2">
    <g id="ytick_1">
     <g id="line2d_8">
      <defs>
       <path d="M 0 0 
L -3.5 0 
" id="mcaf416b7d2" style="stroke:#000000;stroke-width:0.8;"/>
      </defs>
      <g>
       <use style="stroke:#000000;stroke-width:0.8;" x="54" xlink:href="#mcaf416b7d2" y="352.910769"/>
      </g>
     </g>
     <g id="text_9">
      <!-- −8 -->
      <g transform="translate(32.257812 356.709988)scale(0.1 -0.1)">
       <use xlink:href="#DejaVuSans-8722"/>
       <use x="83.789062" xlink:href="#DejaVuSans-56"/>
      </g>
     </g>
    </g>
    <g id="ytick_2">
     <g id="line2d_9">
      <g>
       <use style="stroke:#000000;stroke-width:0.8;" x="54" xlink:href="#mcaf416b7d2" y="302.732308"/>
      </g>
     </g>
     <g id="text_10">
      <!-- −6 -->
      <g transform="translate(32.257812 306.531526)scale(0.1 -0.1)">
       <use xlink:href="#DejaVuSans-8722"/>
       <use x="83.789062" xlink:href="#DejaVuSans-54"/>
      </g>
     </g>
    </g>
    <g id="ytick_3">
     <g id="line2d_10">
      <g>
       <use style="stroke:#000000;stroke-width:0.8;" x="54" xlink:href="#mcaf416b7d2" y="252.553846"/>
      </g>
     </g>
     <g id="text_11">
      <!-- −4 -->
      <g transform="translate(32.257812 256.353065)scale(0.1 -0.1)">
       <use xlink:href="#DejaVuSans-8722"/>
       <use x="83.789062" xlink:href="#DejaVuSans-52"/>
      </g>
     </g>
    </g>
    <g id="ytick_4">
     <g id="line2d_11">
      <g>
       <use style="stroke:#000000;stroke-width:0.8;" x="54" xlink:href="#mcaf416b7d2" y="202.375385"/>
      </g>
     </g>
     <g id="text_12">
      <!-- −2 -->
      <g transform="translate(32.257812 206.174603)scale(0.1 -0.1)">
       <use xlink:href="#DejaVuSans-8722"/>
       <use x="83.789062" xlink:href="#DejaVuSans-50"/>
      </g>
     </g>
    </g>
    <g id="ytick_5">
     <g id="line2d_12">
      <g>
       <use style="stroke:#000000;stroke-width:0.8;" x="54" xlink:href="#mcaf416b7d2" y="152.196923"/>
      </g>
     </g>
     <g id="text_13">
      <!-- 0 -->
      <g transform="translate(40.6375 155.996142)scale(0.1 -0.1)">
       <use xlink:href="#DejaVuSans-48"/>
      </g>
     </g>
    </g>
    <g id="ytick_6">
     <g id="line2d_13">
      <g>
       <use style="stroke:#000000;stroke-width:0.8;" x="54" xlink:href="#mcaf416b7d2" y="102.018462"/>
      </g>
     </g>
     <g id="text_14">
      <!-- 2 -->
      <g transform="translate(40.6375 105.81768)scale(0.1 -0.1)">
       <use xlink:href="#DejaVuSans-50"/>
      </g>
     </g>
    </g>
    <g id="ytick_7">
     <g id="line2d_14">
      <g>
       <use style="stroke:#000000;stroke-width:0.8;" x="54" xlink:href="#mcaf416b7d2" y="51.84"/>
      </g>
     </g>
     <g id="text_15">
      <!-- 4 -->
      <g transform="translate(40.6375 55.639219)scale(0.1 -0.1)">
       <use xlink:href="#DejaVuSans-52"/>
      </g>
     </g>
    </g>
    <g id="text_16">
     <!-- predict value -->
     <g transform="translate(26.178125 247.633281)rotate(-90)scale(0.1 -0.1)">
      <defs>
       <path d="M 18.109375 8.203125 
L 18.109375 -20.796875 
L 9.078125 -20.796875 
L 9.078125 54.6875 
L 18.109375 54.6875 
L 18.109375 46.390625 
Q 20.953125 51.265625 25.265625 53.625 
Q 29.59375 56 35.59375 56 
Q 45.5625 56 51.78125 48.09375 
Q 58.015625 40.1875 58.015625 27.296875 
Q 58.015625 14.40625 51.78125 6.484375 
Q 45.5625 -1.421875 35.59375 -1.421875 
Q 29.59375 -1.421875 25.265625 0.953125 
Q 20.953125 3.328125 18.109375 8.203125 
z
M 48.6875 27.296875 
Q 48.6875 37.203125 44.609375 42.84375 
Q 40.53125 48.484375 33.40625 48.484375 
Q 26.265625 48.484375 22.1875 42.84375 
Q 18.109375 37.203125 18.109375 27.296875 
Q 18.109375 17.390625 22.1875 11.75 
Q 26.265625 6.109375 33.40625 6.109375 
Q 40.53125 6.109375 44.609375 11.75 
Q 48.6875 17.390625 48.6875 27.296875 
z
" id="DejaVuSans-112"/>
       <path d="M 45.40625 46.390625 
L 45.40625 75.984375 
L 54.390625 75.984375 
L 54.390625 0 
L 45.40625 0 
L 45.40625 8.203125 
Q 42.578125 3.328125 38.25 0.953125 
Q 33.9375 -1.421875 27.875 -1.421875 
Q 17.96875 -1.421875 11.734375 6.484375 
Q 5.515625 14.40625 5.515625 27.296875 
Q 5.515625 40.1875 11.734375 48.09375 
Q 17.96875 56 27.875 56 
Q 33.9375 56 38.25 53.625 
Q 42.578125 51.265625 45.40625 46.390625 
z
M 14.796875 27.296875 
Q 14.796875 17.390625 18.875 11.75 
Q 22.953125 6.109375 30.078125 6.109375 
Q 37.203125 6.109375 41.296875 11.75 
Q 45.40625 17.390625 45.40625 27.296875 
Q 45.40625 37.203125 41.296875 42.84375 
Q 37.203125 48.484375 30.078125 48.484375 
Q 22.953125 48.484375 18.875 42.84375 
Q 14.796875 37.203125 14.796875 27.296875 
z
" id="DejaVuSans-100"/>
       <path d="M 9.421875 54.6875 
L 18.40625 54.6875 
L 18.40625 0 
L 9.421875 0 
z
M 9.421875 75.984375 
L 18.40625 75.984375 
L 18.40625 64.59375 
L 9.421875 64.59375 
z
" id="DejaVuSans-105"/>
       <path d="M 48.78125 52.59375 
L 48.78125 44.1875 
Q 44.96875 46.296875 41.140625 47.34375 
Q 37.3125 48.390625 33.40625 48.390625 
Q 24.65625 48.390625 19.8125 42.84375 
Q 14.984375 37.3125 14.984375 27.296875 
Q 14.984375 17.28125 19.8125 11.734375 
Q 24.65625 6.203125 33.40625 6.203125 
Q 37.3125 6.203125 41.140625 7.25 
Q 44.96875 8.296875 48.78125 10.40625 
L 48.78125 2.09375 
Q 45.015625 0.34375 40.984375 -0.53125 
Q 36.96875 -1.421875 32.421875 -1.421875 
Q 20.0625 -1.421875 12.78125 6.34375 
Q 5.515625 14.109375 5.515625 27.296875 
Q 5.515625 40.671875 12.859375 48.328125 
Q 20.21875 56 33.015625 56 
Q 37.15625 56 41.109375 55.140625 
Q 45.0625 54.296875 48.78125 52.59375 
z
" id="DejaVuSans-99"/>
      </defs>
      <use xlink:href="#DejaVuSans-112"/>
      <use x="63.476562" xlink:href="#DejaVuSans-114"/>
      <use x="102.339844" xlink:href="#DejaVuSans-101"/>
      <use x="163.863281" xlink:href="#DejaVuSans-100"/>
      <use x="227.339844" xlink:href="#DejaVuSans-105"/>
      <use x="255.123047" xlink:href="#DejaVuSans-99"/>
      <use x="310.103516" xlink:href="#DejaVuSans-116"/>
      <use x="349.3125" xlink:href="#DejaVuSans-32"/>
      <use x="381.099609" xlink:href="#DejaVuSans-118"/>
      <use x="440.279297" xlink:href="#DejaVuSans-97"/>
      <use x="501.558594" xlink:href="#DejaVuSans-108"/>
      <use x="529.341797" xlink:href="#DejaVuSans-117"/>
      <use x="592.720703" xlink:href="#DejaVuSans-101"/>
     </g>
    </g>
   </g>
   <g id="line2d_15">
    <path clip-path="url(#p6a708594b0)" d="M 54 378 
L 79.753846 352.910769 
L 105.507692 327.821538 
L 131.261538 302.732308 
L 157.015385 277.643077 
L 182.769231 252.553846 
L 208.523077 227.464615 
L 234.276923 202.375385 
L 260.030769 177.286154 
L 285.784615 152.196923 
L 311.538462 127.107692 
L 337.292308 102.018462 
L 363.046154 76.929231 
L 388.8 51.84 
" style="fill:none;stroke:#000000;stroke-linecap:square;stroke-width:2;"/>
   </g>
   <g id="patch_3">
    <path d="M 54 378 
L 54 51.84 
" style="fill:none;stroke:#000000;stroke-linecap:square;stroke-linejoin:miter;stroke-width:0.8;"/>
   </g>
   <g id="patch_4">
    <path d="M 388.8 378 
L 388.8 51.84 
" style="fill:none;stroke:#000000;stroke-linecap:square;stroke-linejoin:miter;stroke-width:0.8;"/>
   </g>
   <g id="patch_5">
    <path d="M 54 378 
L 388.8 378 
" style="fill:none;stroke:#000000;stroke-linecap:square;stroke-linejoin:miter;stroke-width:0.8;"/>
   </g>
   <g id="patch_6">
    <path d="M 54 51.84 
L 388.8 51.84 
" style="fill:none;stroke:#000000;stroke-linecap:square;stroke-linejoin:miter;stroke-width:0.8;"/>
   </g>
   <g id="text_17">
    <!-- Both Unseen -->
    <g transform="translate(183.045 45.84)scale(0.12 -0.12)">
     <defs>
      <path d="M 19.671875 34.8125 
L 19.671875 8.109375 
L 35.5 8.109375 
Q 43.453125 8.109375 47.28125 11.40625 
Q 51.125 14.703125 51.125 21.484375 
Q 51.125 28.328125 47.28125 31.5625 
Q 43.453125 34.8125 35.5 34.8125 
z
M 19.671875 64.796875 
L 19.671875 42.828125 
L 34.28125 42.828125 
Q 41.5 42.828125 45.03125 45.53125 
Q 48.578125 48.25 48.578125 53.8125 
Q 48.578125 59.328125 45.03125 62.0625 
Q 41.5 64.796875 34.28125 64.796875 
z
M 9.8125 72.90625 
L 35.015625 72.90625 
Q 46.296875 72.90625 52.390625 68.21875 
Q 58.5 63.53125 58.5 54.890625 
Q 58.5 48.1875 55.375 44.234375 
Q 52.25 40.28125 46.1875 39.3125 
Q 53.46875 37.75 57.5 32.78125 
Q 61.53125 27.828125 61.53125 20.40625 
Q 61.53125 10.640625 54.890625 5.3125 
Q 48.25 0 35.984375 0 
L 9.8125 0 
z
" id="DejaVuSans-66"/>
      <path d="M 30.609375 48.390625 
Q 23.390625 48.390625 19.1875 42.75 
Q 14.984375 37.109375 14.984375 27.296875 
Q 14.984375 17.484375 19.15625 11.84375 
Q 23.34375 6.203125 30.609375 6.203125 
Q 37.796875 6.203125 41.984375 11.859375 
Q 46.1875 17.53125 46.1875 27.296875 
Q 46.1875 37.015625 41.984375 42.703125 
Q 37.796875 48.390625 30.609375 48.390625 
z
M 30.609375 56 
Q 42.328125 56 49.015625 48.375 
Q 55.71875 40.765625 55.71875 27.296875 
Q 55.71875 13.875 49.015625 6.21875 
Q 42.328125 -1.421875 30.609375 -1.421875 
Q 18.84375 -1.421875 12.171875 6.21875 
Q 5.515625 13.875 5.515625 27.296875 
Q 5.515625 40.765625 12.171875 48.375 
Q 18.84375 56 30.609375 56 
z
" id="DejaVuSans-111"/>
      <path d="M 54.890625 33.015625 
L 54.890625 0 
L 45.90625 0 
L 45.90625 32.71875 
Q 45.90625 40.484375 42.875 44.328125 
Q 39.84375 48.1875 33.796875 48.1875 
Q 26.515625 48.1875 22.3125 43.546875 
Q 18.109375 38.921875 18.109375 30.90625 
L 18.109375 0 
L 9.078125 0 
L 9.078125 75.984375 
L 18.109375 75.984375 
L 18.109375 46.1875 
Q 21.34375 51.125 25.703125 53.5625 
Q 30.078125 56 35.796875 56 
Q 45.21875 56 50.046875 50.171875 
Q 54.890625 44.34375 54.890625 33.015625 
z
" id="DejaVuSans-104"/>
      <path d="M 8.6875 72.90625 
L 18.609375 72.90625 
L 18.609375 28.609375 
Q 18.609375 16.890625 22.84375 11.734375 
Q 27.09375 6.59375 36.625 6.59375 
Q 46.09375 6.59375 50.34375 11.734375 
Q 54.59375 16.890625 54.59375 28.609375 
L 54.59375 72.90625 
L 64.5 72.90625 
L 64.5 27.390625 
Q 64.5 13.140625 57.4375 5.859375 
Q 50.390625 -1.421875 36.625 -1.421875 
Q 22.796875 -1.421875 15.734375 5.859375 
Q 8.6875 13.140625 8.6875 27.390625 
z
" id="DejaVuSans-85"/>
      <path d="M 54.890625 33.015625 
L 54.890625 0 
L 45.90625 0 
L 45.90625 32.71875 
Q 45.90625 40.484375 42.875 44.328125 
Q 39.84375 48.1875 33.796875 48.1875 
Q 26.515625 48.1875 22.3125 43.546875 
Q 18.109375 38.921875 18.109375 30.90625 
L 18.109375 0 
L 9.078125 0 
L 9.078125 54.6875 
L 18.109375 54.6875 
L 18.109375 46.1875 
Q 21.34375 51.125 25.703125 53.5625 
Q 30.078125 56 35.796875 56 
Q 45.21875 56 50.046875 50.171875 
Q 54.890625 44.34375 54.890625 33.015625 
z
" id="DejaVuSans-110"/>
      <path d="M 44.28125 53.078125 
L 44.28125 44.578125 
Q 40.484375 46.53125 36.375 47.5 
Q 32.28125 48.484375 27.875 48.484375 
Q 21.1875 48.484375 17.84375 46.4375 
Q 14.5 44.390625 14.5 40.28125 
Q 14.5 37.15625 16.890625 35.375 
Q 19.28125 33.59375 26.515625 31.984375 
L 29.59375 31.296875 
Q 39.15625 29.25 43.1875 25.515625 
Q 47.21875 21.78125 47.21875 15.09375 
Q 47.21875 7.46875 41.1875 3.015625 
Q 35.15625 -1.421875 24.609375 -1.421875 
Q 20.21875 -1.421875 15.453125 -0.5625 
Q 10.6875 0.296875 5.421875 2 
L 5.421875 11.28125 
Q 10.40625 8.6875 15.234375 7.390625 
Q 20.0625 6.109375 24.8125 6.109375 
Q 31.15625 6.109375 34.5625 8.28125 
Q 37.984375 10.453125 37.984375 14.40625 
Q 37.984375 18.0625 35.515625 20.015625 
Q 33.0625 21.96875 24.703125 23.78125 
L 21.578125 24.515625 
Q 13.234375 26.265625 9.515625 29.90625 
Q 5.8125 33.546875 5.8125 39.890625 
Q 5.8125 47.609375 11.28125 51.796875 
Q 16.75 56 26.8125 56 
Q 31.78125 56 36.171875 55.265625 
Q 40.578125 54.546875 44.28125 53.078125 
z
" id="DejaVuSans-115"/>
     </defs>
     <use xlink:href="#DejaVuSans-66"/>
     <use x="68.603516" xlink:href="#DejaVuSans-111"/>
     <use x="129.785156" xlink:href="#DejaVuSans-116"/>
     <use x="168.994141" xlink:href="#DejaVuSans-104"/>
     <use x="232.373047" xlink:href="#DejaVuSans-32"/>
     <use x="264.160156" xlink:href="#DejaVuSans-85"/>
     <use x="337.353516" xlink:href="#DejaVuSans-110"/>
     <use x="400.732422" xlink:href="#DejaVuSans-115"/>
     <use x="452.832031" xlink:href="#DejaVuSans-101"/>
     <use x="514.355469" xlink:href="#DejaVuSans-101"/>
     <use x="575.878906" xlink:href="#DejaVuSans-110"/>
    </g>
   </g>
  </g>
 </g>
 <defs>
  <clipPath id="p6a708594b0">
   <rect height="326.16" width="334.8" x="54" y="51.84"/>
  </clipPath>
 </defs>
</svg>
